<svg version="1" xmlns="http://www.w3.org/2000/svg" width="933.333" height="933.333" viewBox="0 0 700.000000 700.000000"><path d="M162 .8c-4.8 1.5-10.2 4.6-13.2 7.6-1.9 1.9-5.2 4.1-7.3 5-7.7 3.2-9.5 7.4-9.6 21.3 0 4.5-.6 8.4-1.6 10.4-2.8 5.5.2 20.4 4.4 22 4.6 1.7 2.9 4.9-6.5 12.4-12.2 9.8-40.1 37.9-50.6 51-32.7 41-55.5 87.1-67.6 136.5-2.7 11.2-6.6 32.1-7.5 40.7-2.7 24.9-2.7 66.9 0 83.4.2 1.3.6 4.6 1 7.4 1.1 9.2 1.6 11.9 4.7 26 11.4 53 37.4 106.6 71.2 146.9 2.8 3.4 6.3 7.7 7.8 9.7 3.5 4.8 21.5 22.9 31 31.3 12.2 10.7 41.1 32.6 43.2 32.6.3 0 4 2.2 8.3 4.8 10.2 6.4 26.6 15 37.3 19.6 4.7 2.1 9.4 4.1 10.5 4.6 8.5 3.9 20.7 8 43 14.5 7.4 2.2 27.1 6.2 38.9 8 16.4 2.4 26.5 3 51.1 3 25.6 0 34.6-.6 57-4 20.7-3.2 57.3-13.7 75.2-21.6 2.3-1.1 4.4-1.9 4.7-1.9 1.3 0 26.1-12.3 34-16.9 4.9-2.8 9.1-5.1 9.3-5.1.2 0 1.6-.8 3.1-1.9 1.5-1 7-4.7 12.2-8.1 23.1-15.3 55.4-44 68.5-61.2.6-.7 4-4.9 7.6-9.3 43-52.6 70.6-120.7 76.7-189.5 1.3-15.9.5-66.8-1.3-72.3-.2-.7-.6-3.5-.9-6.2-.3-2.8-.8-6.1-1.1-7.5-.3-1.4-.8-4.1-1.1-6-1-6.5-5.5-26.5-7-31-1.3-3.7-1.5-17.1-1.5-90.7 0-47.5.3-86.8.6-87.2.2-.5 2.8-.9 5.7-.9 2.9 0 5.9 0 6.6-.1.8-.1 1.2-1.9 1.2-5.6V67H555.9L544 59c-6.6-4.4-12.2-8-12.5-8-.2 0-3-1.6-6-3.6-14.7-9.4-46-23.3-69-30.7-15.8-5.1-37.1-10.2-50-12.1-2.2-.3-5.1-.8-6.5-1-2.7-.4-8.4-1.1-19-2.3-8.9-1-51.6-1-61.9 0-11.5 1.1-14.9 1.6-27.6 3.7-18.9 3.3-30.9 6.2-48 11.7-12.2 3.9-33.3 12-35.2 13.5-.8.6-1.6-.7-2.7-4.6-3.2-10.8-14.3-20.7-27.1-24.1-5.6-1.4-13-1.8-16.5-.7z"/></svg>