<?xml version="1.0" standalone="no"?>
<!DOCTYPE svg PUBLIC "-//W3C//DTD SVG 20010904//EN"
 "http://www.w3.org/TR/2001/REC-SVG-20010904/DTD/svg10.dtd">
<svg version="1.0" xmlns="http://www.w3.org/2000/svg"
 width="690.000000pt" height="690.000000pt" viewBox="0 0 690.000000 690.000000"
 preserveAspectRatio="xMidYMid meet">
<metadata>
Created by potrace 1.11, written by Peter Selinger 2001-2013
</metadata>
<g transform="translate(0.000000,690.000000) scale(0.100000,-0.100000)"
fill="#000000" stroke="none">
<path d="M3229 6886 c-2 -2 -42 -7 -89 -10 -489 -40 -1000 -204 -1428 -460
-57 -33 -111 -65 -120 -71 -49 -29 -208 -143 -282 -202 -228 -182 -456 -418
-625 -648 -88 -120 -97 -133 -156 -230 -196 -318 -324 -619 -414 -975 -19 -74
-37 -151 -40 -170 -3 -19 -10 -57 -15 -85 -14 -74 -21 -133 -39 -310 -13 -117
-9 -484 5 -605 7 -58 15 -130 19 -160 3 -30 15 -100 26 -155 11 -55 23 -113
25 -130 3 -16 17 -70 31 -120 231 -826 720 -1505 1418 -1970 323 -214 589
-336 1005 -459 72 -21 320 -73 390 -81 30 -3 62 -8 70 -10 14 -3 99 -12 205
-21 73 -6 399 -5 470 1 39 3 93 8 120 10 49 4 76 7 185 25 30 5 71 11 90 14
61 9 281 63 381 94 600 184 1164 547 1563 1006 28 32 58 66 67 75 35 34 209
273 274 377 82 131 197 351 255 489 23 55 45 109 50 120 24 57 44 120 85 260
24 85 46 164 49 177 2 13 11 55 20 93 17 80 43 252 51 340 3 33 8 84 11 114 6
65 7 405 0 479 -12 129 -17 179 -21 202 -3 14 -7 45 -10 70 -10 97 -66 349
-107 480 -109 351 -251 649 -449 940 -70 104 -112 159 -227 300 -40 50 -304
316 -367 370 -162 141 -418 319 -590 412 -192 103 -319 160 -500 226 -98 36
-329 103 -395 116 -14 3 -36 8 -50 11 -23 5 -78 16 -155 29 -27 4 -113 16
-220 31 -47 7 -560 17 -566 11z"/>
</g>
</svg>
